<svg width="15" height="14" viewBox="0 0 15 14" fill="none" xmlns="http://www.w3.org/2000/svg">
<path d="M5.05224 2.41053C5.80382 0.241961 8.90394 0.241961 9.65553 2.41053C9.98064 3.34857 10.8683 3.98901 11.8611 3.98901H12.1198C14.3348 3.98901 15.2173 6.85241 13.3867 8.09936C12.5466 8.67156 12.1967 9.74258 12.5295 10.703C13.2541 12.7936 10.9039 14.6265 9.0752 13.3809L8.72584 13.143C7.89809 12.5792 6.80968 12.5792 5.98193 13.143L5.63257 13.3809C3.80387 14.6265 1.45367 12.7936 2.17824 10.703C2.51109 9.74258 2.16119 8.67156 1.32111 8.09936C-0.509581 6.85241 0.372962 3.98901 2.58798 3.98901H2.84664C3.83942 3.98901 4.72713 3.34857 5.05224 2.41053Z" fill="#FBB040"/>
</svg>
